<?xml version="1.0" encoding="UTF-8" standalone="no"?>
<!-- Created with Inkscape (http://www.inkscape.org/) -->

<svg
   width="77.066719mm"
   height="77.066734mm"
   viewBox="0 0 77.066719 77.066734"
   version="1.1"
   id="svg40210"
   inkscape:version="1.1.2 (b8e25be833, 2022-02-05)"
   sodipodi:docname="profile.svg"
   xmlns:inkscape="http://www.inkscape.org/namespaces/inkscape"
   xmlns:sodipodi="http://sodipodi.sourceforge.net/DTD/sodipodi-0.dtd"
   xmlns="http://www.w3.org/2000/svg"
   xmlns:svg="http://www.w3.org/2000/svg">
  <sodipodi:namedview
     id="namedview40212"
     pagecolor="#ffffff"
     bordercolor="#666666"
     borderopacity="1.0"
     inkscape:pageshadow="2"
     inkscape:pageopacity="0.0"
     inkscape:pagecheckerboard="0"
     inkscape:document-units="mm"
     showgrid="false"
     inkscape:zoom="0.77771465"
     inkscape:cx="32.788376"
     inkscape:cy="363.88668"
     inkscape:window-width="2560"
     inkscape:window-height="1377"
     inkscape:window-x="-8"
     inkscape:window-y="-8"
     inkscape:window-maximized="1"
     inkscape:current-layer="layer1" />
  <defs
     id="defs40207" />
  <g
     inkscape:label="Ebene 1"
     inkscape:groupmode="layer"
     id="layer1"
     transform="translate(-63.528488,-51.961479)">
    <g
       id="g40776">
      <path
         id="path41083"
         style="fill:#1a1a1a;stroke-width:0.301184"
         d="M 140.59521,90.494843 A 38.533363,38.533363 0 0 1 102.06185,129.02821 38.533363,38.533363 0 0 1 63.528488,90.494843 38.533363,38.533363 0 0 1 102.06185,51.961479 38.533363,38.533363 0 0 1 140.59521,90.494843 Z" />
      <g
         id="g39849"
         transform="translate(-116.13585,55.715213)"
         inkscape:export-filename="P:\Work\teblo\profile.png"
         inkscape:export-xdpi="164.79224"
         inkscape:export-ydpi="164.79224">
        <g
           id="g3524-5-1"
           transform="matrix(0.68032442,0,0,0.68032442,183.4407,15.408719)"
           inkscape:export-filename="P:\Work\teblo\profile.png"
           inkscape:export-xdpi="191.40918"
           inkscape:export-ydpi="191.40918">
          <path
             d="m 61.740553,16.018365 c 0.04746,0.0685 0.01423,-0.0026 0.04428,0.109866 0.07504,0.280366 0.126131,0.869028 0.03916,1.104758 -0.09908,0.268611 -0.459793,0.557197 -0.658753,0.695966 -0.117999,-0.0944 -0.354701,-0.361771 -0.446978,-0.504429 -0.16113,0.0043 -0.327033,-0.102707 -0.468189,-0.16723 -0.164755,-0.07522 -0.342326,-0.09405 -0.500805,-0.167053 -0.123037,-1.340047 1.337573,-3.682941 1.9638,-4.039321 0.04534,0.44353 -0.0071,1.019465 -0.01115,1.477844 -0.0032,0.356114 0.07796,1.24061 0.03863,1.489599 z m 0.962896,-3.524905 0.01486,-0.13921 c 0.87115,-0.03871 1.801076,-0.0072 2.67373,-0.0072 l 6.682202,0.0016 c 0.226451,-0.0019 0.442912,-0.01096 0.668565,-0.02245 0.314485,-0.016 0.394653,-0.03208 0.473671,0.234847 0.230161,0.37662 0.265781,1.852607 0.232283,2.376835 -0.1134,1.77571 -0.976861,4.657063 -2.174163,5.844464 -0.9682,0.960156 -1.934718,1.824058 -3.649529,1.678396 -0.762523,-0.0647 -1.433916,-0.385548 -1.955226,-0.71161 -0.385902,-0.241388 -1.198186,-0.922327 -1.313177,-1.381059 -0.07716,-0.05135 -0.879812,-1.327231 -0.967228,-1.49835 -0.264103,-0.517245 -0.458997,-1.301775 -0.598474,-1.922787 -0.192509,-0.856743 -0.656722,-3.860954 -0.0875,-4.453418 z m 12.743041,4.87821 c -0.14628,0.144867 -0.27082,0.338171 -0.40897,0.482685 -0.493025,-0.216108 -1.057294,-0.82669 -0.964133,-1.621738 0.108718,-0.929044 0.07805,-1.661072 0.09289,-2.593828 l -0.03712,-0.843219 c 0.73035,0.200552 2.418467,2.886126 2.292514,4.25755 -0.09387,0.04967 -0.899964,0.318285 -0.975183,0.31855 z m 3.818529,-10.4792537 0.0097,-4.0919116 c 0.938941,0.019092 1.743624,1.0762094 1.734521,2.075875 -0.0087,0.9590072 -0.811752,2.0551925 -1.744244,2.0160366 z M 66.888435,-4.1995412 c 0.116051,0.1490219 0.179868,1.3353623 0.203026,1.6184685 -0.478443,0.058778 -2.935713,-0.05922 -3.666854,-0.065761 -2.825671,-0.024925 -5.098737,0.4046393 -6.357821,3.02241967 -0.107127,0.22273716 -0.186498,0.41878122 -0.257032,0.66953733 -0.06108,0.2169919 -0.07734,0.7333533 -0.130814,0.8414515 -0.05454,0.04552 -0.105004,0.088476 -0.149642,0.1379733 l -0.120649,0.2534961 c 0.233699,0.201259 0.333753,0.3261509 0.321556,0.5571081 -0.0086,0.1613077 0.01741,0.2888512 -0.01388,0.4012805 -0.06222,0.2242397 -0.117643,0.155474 -0.122152,0.4521917 0.08282,0.055508 0.051,0.030405 0.112784,0.1050931 2.5e-4,5.262e-4 0.02766,0.038095 0.04967,0.064346 0.154501,0.1854375 0.08742,0.1452211 0.09873,0.4254988 0.0063,0.1516733 0.04039,0.254203 0.03677,0.4001314 -0.01122,0.4521918 -0.07133,0.6320609 -0.03933,1.3105253 0.0086,0.1824323 0.02855,0.1557394 0.06249,0.2827524 l 0.08724,0.4929386 c 0.110659,-0.0046 0.04463,-0.087681 -0.01123,-0.1623683 -0.09219,-0.123301 -0.205058,-0.1313443 -0.397126,-0.1343494 0,0.1239196 0.01829,0.2916797 -0.0136,0.4082632 l -0.07504,0.1767754 c -0.08512,0.1229474 0.0761,0.045166 -0.05993,0.046138 -0.314924,0.00213 -0.327476,-0.1057117 -0.631,-0.1857027 -0.01458,0.072124 -0.04676,0.2058553 -0.111369,0.2599486 0.146195,0.2066505 0.307769,0.2009936 0.626759,0.2227371 0.150083,0.010343 0.165993,0.039421 0.33499,0.037211 0.14858,-0.00195 0.249253,-0.021214 0.411357,-0.019004 0,-0.1970164 0.08096,-0.3251787 -0.03712,-0.4265594 -0.103326,0.062137 0.09281,0.013966 0.104739,0.011756 0.148405,-0.027842 0.137356,0.012109 0.155829,0.1418622 0.03456,0.243685 0.03014,0.1961325 0.111015,0.2914144 -0.04216,-0.1646664 -0.0601,-0.2328132 -0.0137,-0.3930602 l 0.01203,-2.4652232 c 0.022,-1.5435156 -0.11897,-2.8992955 0.613763,-4.2885744 0.209568,-0.39739139 0.74891,-1.2014549 1.2095,-1.19208579 0.436547,-0.67926011 1.629517,-0.78886081 2.670371,-0.83570631 3.305524,-0.1490219 7.100542,-0.034825 10.431347,-0.024218 1.913329,0.0061 4.009091,-0.2483697 5.336499,1.67264995 1.084782,1.56967835 0.791601,4.08607805 0.773482,6.18997205 -0.01095,1.2648289 0.119676,1.9914646 -0.384664,3.0889755 -1.402713,3.0524712 -5.161935,2.3793102 -8.138305,2.3641962 -2.337678,-0.01193 -4.678099,0.0038 -7.01622,7.01e-4 -1.527341,-0.002 -2.954271,0.03783 -4.139464,-1.127828 -0.719741,-0.7078971 -0.573902,-0.782408 -0.765349,-1.017608 -0.237499,0.00822 -0.198165,0.1912714 -0.55207,0.144249 l 0.06656,0.2892048 c 0.05984,0.2359952 0.01706,0.1513197 0.119058,0.1932152 -0.0639,0.07 -0.04093,0.05878 -0.05913,0.140007 0.346746,0.932137 1.616967,1.609541 2.525682,1.92208 0.327654,0.112694 0.923828,0.179604 1.143471,0.350899 -0.269848,0.424262 -0.811841,0.820592 -1.202781,1.627838 -0.14628,0.301933 -0.336316,0.660698 -0.497005,0.913576 -0.230779,0.363627 -0.221852,0.553838 -0.335696,1.073027 -0.282132,1.286838 -0.11623,0.956533 -0.738215,1.37991 -0.424082,0.288675 -0.708249,0.823155 -0.728844,1.390428 -0.01601,0.439552 0.09572,0.924624 0.423995,1.034844 0.129841,-0.196221 0.257032,-0.412152 0.400132,-0.622427 0.103502,-0.152027 0.32898,-0.48136 0.399336,-0.631707 0.267726,0.04464 0.445562,0.158302 0.642403,0.287614 0.09431,0.06187 0.176952,0.121091 0.267372,0.178278 0.06444,0.04084 0.08282,0.04897 0.139034,0.08379 0.01185,0.0072 0.05887,0.03712 0.06753,0.04358 0.0062,0.0047 0.01511,0.01176 0.02087,0.01644 l 0.0388,0.03633 c 0.0041,0.0036 0.0129,0.01229 0.01864,0.01909 l -0.772685,1.390339 c 0.865052,0.0731 1.459635,-0.415599 1.744067,-0.936468 0.442117,-0.809632 -0.343917,-0.493999 0.957682,-1.74831 0.210894,0.136382 0.372908,0.691988 0.452013,0.916669 0.313601,0.890507 1.015489,1.994205 1.60804,2.624233 0.209656,0.222826 0.489756,0.427267 0.770122,0.640016 0.557108,0.422759 -0.0066,0.232018 0.849673,0.560909 0.817673,0.313953 1.219397,0.589635 2.261223,0.560113 1.786142,-0.05065 2.998644,-1.027508 3.76638,-1.873909 0.430006,-0.473935 0.829695,-1.005057 1.165038,-1.655415 0.16122,-0.312362 0.310241,-0.615974 0.449188,-0.961305 0.08892,-0.220969 0.267638,-0.896694 0.371936,-1.036258 0.292209,0.09502 0.22088,0.136117 0.389171,0.3136 0.126128,0.133112 0.2801,0.21434 0.392,0.349927 0.27462,0.33278 0.148226,0.743694 0.315986,1.169724 0.242448,0.615178 0.923653,1.167248 1.813804,1.074972 -0.163252,-0.426295 -0.576994,-0.923741 -0.750323,-1.351715 0.06108,-0.07248 0.971823,-0.710195 1.112538,-0.744755 l 0.928601,1.290285 c 0.575757,-0.465539 0.385105,-1.525573 -0.01378,-2.061026 -0.270113,-0.362655 -0.74069,-0.553307 -0.79107,-0.624106 -0.09988,-0.140448 -0.08653,-1.623507 -1.089912,-3.211039 -0.324028,-0.512561 -1.17759,-1.474485 -1.232921,-1.639063 4.280179,-0.669714 4.245708,-4.3625548 4.47631,-4.5354415 C 79.601703,7.5904091 81.326149,7.3370014 81.724601,5.6561314 81.876363,5.0154967 81.843924,4.2406896 81.593963,3.6725332 81.376705,3.1787107 80.936713,2.6370705 80.501313,2.464184 80.404263,2.3075609 80.00378,2.1763934 79.796243,2.0920715 79.439954,1.9470272 79.326817,2.0018276 79.223581,1.5894987 78.800556,-0.10003347 78.05589,-1.3724637 76.370689,-2.1295932 c -2.205805,-0.9910922 -6.225857,-0.097315 -8.14184,-0.4694275 -0.01917,-0.2826642 -0.0087,-0.5910489 -0.01052,-0.8768067 -0.0042,-0.6447887 -0.04879,-0.4879888 0.20674,-0.6907505 0.01325,-0.4389335 -0.152469,-0.4099423 -0.174479,-0.4227586 -0.136116,-0.078665 -0.259859,-0.047376 -0.393945,-0.067528 -0.206827,-0.031201 0.10854,0.026605 -0.09307,-0.021036 -0.634359,-0.1496405 -0.17165,-0.2412985 -0.515565,-0.2053248 l -0.163252,-0.025721 -0.578763,-0.070268 c 0.03412,0.229543 0.06753,0.1743007 0.185701,0.4137431 0.03394,0.068943 0.06717,0.1353217 0.104298,0.1965745 0.03774,0.062402 0.05948,0.089802 0.09246,0.1693509"
             style="fill:#17303b;fill-opacity:1;fill-rule:evenodd;stroke:none;stroke-width:0.00883878"
             id="path41080" />
          <path
             d="m 59.232375,-0.90090974 c -0.46059,-0.009369 -0.999932,0.7946944 -1.2095,1.1920858 C 57.290142,1.6804549 57.431121,3.0362349 57.409112,4.5797504 l -0.01203,2.4652233 c 0.02554,0.043487 0.114285,1.0507536 0.158479,1.25051 0.05286,0.2384701 0.197369,0.7159409 0.330746,0.932933 l 0.02749,0.040835 c 0.03058,0.04004 0.0388,0.041631 0.04525,0.046492 0.247043,-0.028991 0.117645,-0.078842 0.330746,-0.1466352 0.262955,-0.083438 0.168997,0.090332 0.420372,-0.02298 0.05136,-0.3409998 -0.205324,-0.4883423 -0.06452,-0.7168248 0.184641,-0.2992808 0.122593,-0.2215881 0.606426,-0.1595397 -0.004,0.1385034 -0.02952,0.015203 0.01458,0.1799573 l 0.398807,0.00274 c -0.02395,-0.1891497 -0.083,-0.2426244 -0.03995,-0.4170133 0.06019,-0.296541 -5.01e-4,-1.4163257 0.0078,-1.8222024 0.01238,-0.6061632 0.02297,-1.2127684 0.02077,-1.8190201 -0.0041,-1.1439144 -0.04782,-2.388149 1.183689,-2.4734432 0.07478,-0.1768639 0.37494,-0.1139318 0.730701,-0.1141086 0.296984,-1.767e-4 0.593966,-5.311e-4 0.890949,1.768e-4 l 5.271446,-0.00274 c 2.315319,-0.00159 4.670851,0.045697 6.979275,0.00133 l 0.06373,-0.1772175 c 0.0015,-0.00884 0.0031,-0.019092 0.0034,-0.027489 0.0028,-0.080344 -0.09519,-0.1693509 -0.141332,-0.3246482 0.25712,-0.079637 0.02405,0.038007 0.322173,-0.096343 0.01902,-0.00866 0.06647,-0.020506 0.07867,-0.022804 0.0077,-0.1335539 0.02554,-0.316605 0.02722,-0.44043626 0.0035,-0.24112181 -0.07504,-0.14769595 -0.06726,-0.44264592 l 0.0055,-0.15105468 c -5.01e-4,-0.0137884 -0.0015,-0.0215667 -0.0023,-0.03482479 -0.01857,-0.25897616 -0.07372,-0.34259099 -0.12233,-0.55171642 -0.01989,-0.0852942 0.01395,-0.0723012 -0.08344,-0.21142354 -0.0042,-0.006099 -0.01132,-0.0144073 -0.01563,-0.0204177 -0.0064,-0.008662 -0.0243,-0.0341177 -0.03067,-0.0427797 -0.185614,-0.25243546 -0.04896,-0.007955 -0.207709,-0.31006429 -0.0038,-0.00725 -0.0087,-0.017059 -0.01273,-0.024042 -0.08167,-0.1410669 -0.299458,-0.2464251 -0.300254,-0.4358401 -0.397745,-0.05206 -9.379269,-0.016175 -10.394136,-0.014319 -0.145752,1.767e-4 -0.255882,-9.771e-4 -0.400662,-0.019976 l -0.942478,0.020064 c -0.147521,0.031121 -0.106421,-0.015644 -0.254026,0.156808 -0.152734,0.1783665 -0.07354,0.2336972 -0.07354,0.56258813 -0.19781,-0.0128163 -0.286198,-0.075218 -0.445737,-0.0626669 l -0.448215,0.0228041 c -0.264191,-0.002917 -0.461738,-0.0871503 -0.670687,-0.20797643 -0.01025,-0.00592 -0.03977,-0.025367 -0.05029,-0.030671 l -0.162633,-0.056126 c -0.384223,-0.1131363 -0.165021,-0.018915 -0.587249,0.1345262 l -0.08759,0.0312009 c -0.11897,0.0361506 0.02661,0.001413 -0.08397,0.0209478 -0.199313,0.0355319 -0.255263,0.0669095 -0.3935,0.0502043"
             style="fill:#d9eef1;fill-opacity:1;fill-rule:evenodd;stroke:none;stroke-width:0.00883878"
             id="path41077" />
          <path
             d="M 61.798094,6.6915109 C 61.312933,4.1799726 65.365689,3.2359912 65.973797,5.9664661 66.155434,6.7821967 65.485719,7.0875764 65.104769,6.6489079 64.746092,6.2360487 65.033528,5.6702786 64.27189,5.4037895 63.612342,5.1728323 63.104907,5.5890504 62.903825,6.0264814 62.582978,6.724391 62.732884,7.0692801 61.798094,6.6915109 Z m 9.845514,-1.3374838 c -0.270114,0.071771 -0.543321,0.2283941 -0.684918,0.3747642 -0.221056,0.228394 -0.180044,0.4158645 -0.293094,0.7474953 -0.14858,0.435575 -1.075237,0.7416619 -0.968553,-0.3382598 0.183671,-1.8610929 2.374804,-2.4914744 3.657752,-1.0933568 0.225388,0.2456297 0.751471,1.0299827 0.504163,1.5435156 C 73.770747,6.7711483 73.478979,7.0054643 73.226101,6.84451 72.837373,6.5971127 72.65273,5.0857704 71.643608,5.3540271 Z M 61.431197,3.2356377 c -0.621986,0.1739471 -0.457143,1.1048469 -0.457055,1.9380786 0,0.7629632 -0.03624,1.6199708 0.01132,2.3717087 0.05409,0.85524 0.534747,0.7388334 1.622358,0.738745 l 9.540664,-0.00105 c 0.535805,0 1.905463,0.059927 2.339003,-0.063551 0.623577,-0.1776595 0.496033,-1.2086144 0.482864,-1.8949455 -0.01458,-0.7547429 0.01759,-1.600172 -0.03306,-2.3403311 -0.02988,-0.4358399 -0.09307,-0.6271996 -0.46386,-0.7276081 -0.428592,-0.1160531 -3.005182,-0.065672 -3.550004,-0.065672 l -7.127591,-6.188e-4 c -0.515566,0 -1.971224,-0.064788 -2.364637,0.045254"
             style="fill:#9fa0a7;fill-opacity:1;fill-rule:evenodd;stroke:none;stroke-width:0.00883878"
             id="path41074" />
          <path
             d="m 74.710132,1.8054352 c -2.308424,0.044371 -4.663956,-0.00292 -6.979275,-0.00133 l -5.271446,0.00274 c -0.296982,-7.065e-4 -0.593965,-3.532e-4 -0.890949,-1.768e-4 -0.355761,1.768e-4 -0.655925,-0.062755 -0.730701,0.1141087 3.41981,-0.1024415 6.916342,3.532e-4 10.345522,-0.00742 0.843219,-0.00203 1.682991,-0.027135 2.524356,-0.036327 2.374714,-0.025986 2.583398,0.1870285 2.579332,2.6285637 -0.0015,0.8661118 -0.01786,1.7320467 -0.01874,2.5986005 -0.0025,2.4550585 -0.235643,2.4795418 -2.671962,2.4794536 -1.732401,-1.769e-4 -3.464712,0 -5.197202,0 -1.714898,0 -3.489549,-0.044459 -5.197199,0.00628 -1.095656,0.032527 -2.593828,0.2828409 -3.263012,-0.5595831 -0.322703,-0.4064069 -0.186851,-0.7837341 -0.313335,-0.9948925 -0.04304,0.1743889 0.01601,0.2278636 0.03995,0.4170133 l -0.398807,-0.00274 -0.515918,-0.044901 c 0.113666,0.6400158 0.541374,1.0242374 0.873713,1.3861853 0.304849,0.3318961 0.871326,0.6896901 1.399,0.9025271 1.154698,0.465716 7.177618,0.277538 8.786274,0.268699 2.572351,-0.01405 5.6798,0.633652 7.27069,-1.7103032 0.838889,-1.2361027 0.717003,-2.1788466 0.707545,-3.8553857 -0.0078,-1.3714247 0.201523,-3.0387715 -0.344271,-4.2183062 -0.398805,-0.86178073 -1.370718,-1.96821877 -2.485904,-2.13730456 0.0875,0.96784603 0.147076,1.77323534 0.174476,2.76768606 l -0.422141,-0.00318"
             style="fill:#9acfcc;fill-opacity:1;fill-rule:evenodd;stroke:none;stroke-width:0.00883878"
             id="path41071" />
          <path
             d="m 62.703449,12.49346 5.804072,0.0079 c 0.03589,0.186233 -0.01776,0.891479 -0.06063,1.093356 l 0.271351,-0.03615 -0.403843,2.759201 1.528578,0.0039 c -0.04304,0.356645 -2.307805,3.677373 -2.630508,3.887913 l 0.567183,-2.308424 c -0.156357,0.08786 -0.317046,0.407822 -0.423554,0.596088 -0.127544,0.225653 -0.246512,0.430094 -0.377238,0.625608 -0.207534,0.310153 -0.611026,0.864875 -1.08938,0.888297 -0.120561,0.24121 -0.336934,0.450513 -0.242979,0.835707 0.286642,1.174231 3.436163,1.346587 5.274454,-1.011598 1.184129,-1.518856 1.627041,-3.082966 1.678836,-5.120834 0.01927,-0.754478 -0.08998,-1.513641 -0.07513,-2.218356 l 0.691811,0.06496 c -0.07902,-0.266931 -0.159186,-0.250845 -0.473671,-0.234846 -0.225654,0.01149 -0.442115,0.0206 -0.668565,0.02245 l -6.682202,-0.0016 c -0.872654,0 -1.80258,-0.03147 -2.673731,0.0072 l -0.01486,0.139211"
             style="fill:#9ad3ca;fill-opacity:1;fill-rule:evenodd;stroke:none;stroke-width:0.00883878"
             id="path41068" />
          <path
             d="m 64.356655,20.368015 c 0.132758,0.0967 0.08901,0.06983 0.248458,0.07813 0.169439,-0.386078 -0.02599,-0.310772 0.24784,-0.404198 l 0.208681,-0.0883 c 0.149818,-0.07778 0.107568,-0.07186 0.107924,-0.22751 0.09758,0.02484 0.140006,0.03659 0.259683,0.03695 -0.005,0.0084 -0.01413,0.01105 -0.01714,0.02387 -0.0028,0.01237 -0.01308,0.01856 -0.01714,0.02236 -0.0037,0.0035 -0.01335,0.01529 -0.01804,0.01927 -0.02988,0.02528 -0.05109,0.02828 -0.08132,0.04587 l -7.51e-4,0.334283 c 0.07469,-0.02492 0.06594,-0.0059 0.151055,-0.02864 0.210187,-0.05639 0.231399,-0.162192 0.44353,-0.168997 0.478354,-0.02342 0.881846,-0.578145 1.08938,-0.888298 0.130726,-0.195513 0.249694,-0.399954 0.377238,-0.625608 0.106508,-0.188266 0.267197,-0.50823 0.423554,-0.596087 l 0.136824,-0.69517 -1.618908,-0.01547 c 0.06267,-0.355761 0.864342,-1.476518 1.074086,-1.795597 0.201082,-0.306176 1.037497,-1.497289 1.075237,-1.800194 0.04287,-0.201878 0.09652,-0.907124 0.06064,-1.093357 l -5.804072,-0.0079 c -0.569217,0.592464 -0.105004,3.596675 0.0875,4.453418 0.139478,0.621012 0.334371,1.405542 0.598474,1.922787 0.08742,0.171119 0.890064,1.446997 0.967228,1.49835"
             style="fill:#d9eef1;fill-opacity:1;fill-rule:evenodd;stroke:none;stroke-width:0.00883878"
             id="path41065" />
          <path
             d="m 75.345198,2.8277281 c 0.199138,1.1489526 0.241298,4.4673829 0.03403,5.6478898 -0.04075,0.2323715 -0.152293,0.2293662 -0.404287,0.2723226 -0.421873,0.071948 -10.537943,0.025191 -11.847319,0.025191 -0.507522,0 -2.239746,0.1121641 -2.504468,-0.1668759 -0.267106,-0.2815153 -0.155207,-1.9584963 -0.155119,-2.4672562 0,-0.8746853 -0.01451,-1.7625404 0.0013,-2.6356348 0.01839,-1.0152219 0.44795,-0.8045054 1.804436,-0.8053009 1.980858,-0.00115 11.721985,-0.1669645 13.071402,0.1296648 z M 60.837761,1.9207813 c -1.231506,0.085294 -1.187755,1.3295287 -1.183689,2.4734431 0.0023,0.6062517 -0.0084,1.2128569 -0.02077,1.8190202 -0.0083,0.4058767 0.05241,1.5256613 -0.0078,1.8222024 0.126484,0.2111583 -0.0094,0.5884856 0.313335,0.9948924 0.669184,0.842424 2.167356,0.5921098 3.263012,0.5595832 1.70765,-0.050735 3.482301,-0.00628 5.197199,-0.00628 1.73249,0 3.464801,-1.769e-4 5.197202,0 2.436319,8.82e-5 2.669486,-0.024396 2.671962,-2.4794536 10e-4,-0.8665538 0.01731,-1.7324887 0.01874,-2.5986005 0.0041,-2.4415351 -0.204618,-2.6545496 -2.579332,-2.6285636 -0.841365,0.00919 -1.681136,0.034294 -2.524356,0.036327 -3.42918,0.00778 -6.925712,-0.095017 -10.345522,0.00742"
             style="fill:#17303b;fill-opacity:1;fill-rule:evenodd;stroke:none;stroke-width:0.00883878"
             id="path41062" />
          <path
             d="m 59.232375,-0.90090974 c 0.138237,0.0167053 0.194187,-0.0146723 0.393501,-0.0502042 0.110574,-0.0195337 -0.035,0.0152027 0.08397,-0.0209478 l 0.08759,-0.0312009 c 0.422228,-0.1534411 0.203027,-0.2476625 0.587249,-0.1345261 l 0.162634,0.056126 c 0.01052,0.0053 0.04004,0.024749 0.05029,0.030671 0.20895,0.12082386 0.406497,0.20505742 0.670687,0.2079742 l 0.448215,-0.022804 c 0.159539,-0.0125512 0.247927,0.0498507 0.445738,0.0626669 0,-0.3288888 -0.07919,-0.3842195 0.07354,-0.562586 0.147606,-0.1724445 0.106506,-0.1256874 0.254026,-0.1567998 l 0.942479,-0.020064 c 0.144779,0.019004 0.25491,0.020152 0.400661,0.019976 1.014867,-0.00185 9.996391,-0.037742 10.394136,0.014319 7.52e-4,0.189415 0.218583,0.2947732 0.300254,0.4358401 0.0041,0.00698 0.0089,0.016794 0.01273,0.024042 0.158745,0.30210726 0.0221,0.0576288 0.207709,0.31006215 0.0064,0.008662 0.0243,0.0341177 0.03067,0.0427797 0.0043,0.00601 0.0115,0.0143188 0.01563,0.0204177 0.0974,0.13912233 0.06355,0.12612933 0.08344,0.21142353 0.04861,0.20912544 0.103767,0.29274026 0.12233,0.55171643 0.001,0.01325824 0.0018,0.02103626 0.0023,0.03482479 l -0.0055,0.15105467 c -0.0078,0.29494997 0.07071,0.20152411 0.06726,0.44264593 -0.0018,0.12383126 -0.01954,0.3068844 -0.02722,0.4404383 -0.0122,0.0023 -0.05966,0.014142 -0.07867,0.022804 -0.298132,0.1343493 -0.06505,0.016705 -0.322172,0.096343 0.04614,0.1552973 0.14416,0.2443038 0.141332,0.3246483 -2.51e-4,0.0084 -0.0018,0.01865 -0.0034,0.027489 l -0.06373,0.1772174 0.422141,0.00318 c -0.0274,-0.99445281 -0.08697,-1.79984213 -0.174477,-2.76768815 1.115187,0.16908578 2.0871,1.27552383 2.485905,2.13730665 0.545794,1.1795347 0.336493,2.8468814 0.34427,4.2183062 0.0095,1.676539 0.131345,2.6192829 -0.707545,3.8553857 -1.590889,2.343955 -4.698338,1.696249 -7.270689,1.710303 -1.608656,0.0088 -7.631576,0.197016 -8.786274,-0.268699 -0.527674,-0.212838 -1.094151,-0.570631 -1.399,-0.902527 C 59.292066,9.4290577 58.864358,9.0448361 58.750692,8.4048203 l 0.515918,0.044901 C 59.22251,8.2849665 59.24804,8.4082673 59.25203,8.269764 58.768197,8.207716 58.830245,8.1300228 58.645604,8.4293036 c -0.140803,0.2284825 0.115876,0.375825 0.06452,0.7168248 -0.251375,0.1133134 -0.157417,-0.060457 -0.420372,0.02298 -0.213101,0.067793 -0.0837,0.117644 -0.330746,0.1466352 0.02934,0.07292 0.0045,0.04658 0.04101,0.094486 0.191447,0.2351999 0.04561,0.3097109 0.765349,1.0176084 1.185192,1.165658 2.612123,1.125795 4.139464,1.127828 2.338121,0.0031 4.678542,-0.01264 7.01622,-7.02e-4 2.97637,0.01511 6.735592,0.688276 8.138305,-2.3641956 0.50434,-1.0975109 0.373704,-1.8241467 0.384663,-3.0889755 0.01811,-2.103894 0.311301,-4.6202938 -0.773481,-6.18997209 -1.327409,-1.92101971 -3.42317,-1.66655141 -5.336499,-1.67265001 -3.330805,-0.010606 -7.125823,-0.1248037 -10.431348,0.024218 -1.040854,0.046846 -2.233823,0.1564462 -2.67037,0.83570628"
             style="fill:#d7edf1;fill-opacity:1;fill-rule:evenodd;stroke:none;stroke-width:0.00883878"
             id="path41059" />
          <path
             d="m 61.431197,3.2356377 c 0.393413,-0.1100428 1.849071,-0.045255 2.364636,-0.045255 l 7.127592,6.189e-4 c 0.544822,0 3.121412,-0.050381 3.550004,0.065672 0.370789,0.1004085 0.433984,0.2917682 0.46386,0.7276082 0.05065,0.7401591 0.01846,1.5855882 0.03306,2.3403311 0.01318,0.6863311 0.140713,1.7172859 -0.482864,1.8949455 -0.43354,0.1234776 -1.803198,0.063551 -2.339003,0.063551 l -9.540664,0.00105 C 61.520204,8.2842504 61.03955,8.400657 60.985457,7.545417 60.937905,6.7936791 60.974132,5.9366714 60.974132,5.1737082 60.974044,4.3404766 60.809201,3.4095767 61.431187,3.2356295 Z M 75.345198,2.8277281 C 73.995782,2.5310988 64.254654,2.6969142 62.273797,2.6980633 c -1.356487,7.942e-4 -1.786051,-0.209921 -1.804436,0.8053009 -0.01581,0.8730944 -0.0013,1.7609495 -0.0013,2.6356348 -8.8e-5,0.5087599 -0.111988,2.1857409 0.155119,2.4672562 0.264722,0.27904 1.996945,0.1668759 2.504468,0.1668759 1.309376,0 11.425446,0.046757 11.847319,-0.025191 0.251993,-0.042956 0.36354,-0.039951 0.404286,-0.2723226 0.207269,-1.1805069 0.165109,-4.4989372 -0.03403,-5.6478898"
             style="fill:#dee9ee;fill-opacity:1;fill-rule:evenodd;stroke:none;stroke-width:0.00883878"
             id="path41056" />
          <path
             d="m 65.889475,20.011105 c -0.212131,0.0068 -0.233343,0.112606 -0.44353,0.168998 -0.08512,0.02271 -0.07637,0.0037 -0.151055,0.02864 l 7.51e-4,-0.334282 c 0.03023,-0.01759 0.05144,-0.0206 0.08132,-0.04587 0.0047,-0.004 0.01431,-0.01573 0.01804,-0.01927 0.0041,-0.0038 0.01431,-0.01 0.01714,-0.02236 0.003,-0.01282 0.0122,-0.01547 0.01714,-0.02387 -0.119677,-3.51e-4 -0.162105,-0.01211 -0.259683,-0.03695 -2.5e-4,0.155651 0.04189,0.149729 -0.107923,0.22751 l -0.208682,0.0883 c -0.273826,0.09343 -0.0784,0.01812 -0.247839,0.404197 -0.159452,-0.0083 -0.115701,0.01856 -0.248459,-0.07813 0.114992,0.458732 0.927276,1.139671 1.313177,1.381059 0.52131,0.326062 1.192704,0.64691 1.955227,0.71161 1.71481,0.145662 2.681329,-0.71824 3.649529,-1.678396 1.197301,-1.187401 2.060762,-4.068754 2.174163,-5.844464 0.0335,-0.524228 -0.002,-2.000215 -0.232283,-2.376835 l -0.691811,-0.06496 c -0.01486,0.704715 0.0944,1.463878 0.07513,2.218356 -0.05179,2.037868 -0.494707,3.601978 -1.678836,5.120833 -1.838291,2.358186 -4.987812,2.18583 -5.274454,1.011598 -0.09395,-0.385194 0.122418,-0.594496 0.242979,-0.835706"
             style="fill:#d7edf1;fill-opacity:1;fill-rule:evenodd;stroke:none;stroke-width:0.00883878"
             id="path41053" />
          <path
             d="m 66.888435,-4.1995412 c -0.03297,-0.079549 -0.05471,-0.1069492 -0.09246,-0.1693509 -0.03712,-0.061253 -0.07036,-0.1276319 -0.104298,-0.1965745 -0.118173,-0.2394424 -0.151584,-0.1841116 -0.185701,-0.4137431 l 0.578763,0.070268 c -0.154681,0.00725 -0.240681,-0.1314327 -0.323587,-0.1951603 -0.111459,-0.085648 -0.200907,-0.1499941 -0.313514,-0.243243 -0.186498,-0.1544135 -0.355582,-0.3341058 -0.477559,-0.6369223 -0.21929,-0.544557 -0.204174,-1.5162921 0.251993,-1.7595353 0.117026,-0.3130695 0.366282,-0.5544564 0.762964,-0.6246362 0.04879,-0.058071 0.05842,-0.077958 0.146283,-0.1253339 0.57991,-0.3121855 2.228521,-0.019533 2.425537,1.5608395 0.168378,1.3510071 -0.973679,2.1969663 -2.308865,2.0497123 0.343915,-0.035974 -0.118795,0.055684 0.515565,0.2053248 0.201611,0.047641 -0.113756,-0.010165 0.09307,0.021036 0.134086,0.020152 0.257829,-0.011137 0.393945,0.067528 0.02202,0.012816 0.187735,-0.016175 0.174479,0.4227586 0.67917,-0.2188479 1.044477,-0.4497168 1.388837,-0.9017319 0.347009,-0.4554622 0.598472,-1.0432407 0.563029,-1.7866702 -0.0365,-0.7659683 -0.337465,-1.248919 -0.698262,-1.6505532 -0.388024,-0.4323045 -0.176777,-0.3548769 -0.603866,-0.546148 -0.28567,-0.127897 -0.579116,-0.1794272 -0.861604,-0.2866414 -0.915079,-0.1028833 -1.478374,-0.063551 -2.098149,0.422847 -0.408882,0.3208475 -0.832614,0.8169681 -1.027332,1.5353839 -0.415156,1.5318483 0.662025,2.8894844 1.800726,3.1805452"
             style="fill:#172f3b;fill-opacity:1;fill-rule:evenodd;stroke:none;stroke-width:0.00883878"
             id="path41050" />
          <path
             d="M 56.492443,6.8914439 C 56.005159,6.9907919 55.442837,6.452422 55.258196,6.2498371 54.97889,5.9433969 54.756153,5.4291569 54.751467,4.8761146 54.741646,3.7478447 55.724706,2.7162712 56.508262,2.8444334 Z m 1.082041,3.2854621 c 0.01822,-0.08123 -0.0048,-0.07 0.05913,-0.140007 -0.101998,-0.041896 -0.05922,0.04278 -0.119058,-0.1932152 L 57.448002,9.554479 c 0.353905,0.047022 0.314571,-0.1360287 0.55207,-0.1442489 -0.0365,-0.047906 -0.01168,-0.021567 -0.04101,-0.094487 -0.0065,-0.00486 -0.01468,-0.00645 -0.04525,-0.046492 l -0.02749,-0.040835 C 57.752945,9.011424 57.608432,8.5339532 57.555576,8.2954831 57.511386,8.0957267 57.42264,7.0884597 57.397097,7.0449731 c -0.0464,0.160247 -0.02846,0.2283938 0.0137,0.3930602 -0.08087,-0.095282 -0.07645,-0.047729 -0.111015,-0.2914144 -0.01847,-0.1297533 -0.0074,-0.1697044 -0.155829,-0.1418623 -0.01193,0.0022 -0.208065,0.050381 -0.104739,-0.011756 0.118086,0.1013808 0.03712,0.2295431 0.03712,0.4265595 -0.162104,-0.0022 -0.262777,0.01706 -0.411357,0.019004 -0.168997,0.0022 -0.184907,-0.02687 -0.33499,-0.037211 -0.31899,-0.021743 -0.480564,-0.016088 -0.626759,-0.2227372 0.06461,-0.054093 0.09679,-0.187824 0.111369,-0.2599485 0.303524,0.079991 0.316076,0.187824 0.631,0.1857026 0.13603,-9.771e-4 -0.02519,0.076809 0.05993,-0.046138 l 0.07504,-0.1767753 c 0.03191,-0.1165835 0.0136,-0.2843437 0.0136,-0.4082632 0.192068,0.003 0.304939,0.011049 0.397126,0.1343493 0.05586,0.074688 0.121887,0.1577723 0.01123,0.1623684 L 56.915287,6.276973 c -0.03394,-0.1270131 -0.05392,-0.1003202 -0.06249,-0.2827524 -0.03199,-0.6784644 0.02811,-0.8583336 0.03933,-1.3105253 0.0036,-0.1459284 -0.03049,-0.2484582 -0.03677,-0.4001314 -0.0113,-0.2802778 0.05577,-0.2400613 -0.09873,-0.4254989 -0.022,-0.026251 -0.04932,-0.063816 -0.04967,-0.064346 -0.06178,-0.074688 -0.02996,-0.049586 -0.112784,-0.1050931 0.0045,-0.2967177 0.05993,-0.227952 0.122152,-0.4521918 0.03129,-0.1124292 0.0053,-0.2399728 0.01388,-0.4012804 0.0122,-0.2309573 -0.08786,-0.3558492 -0.321556,-0.5571081 l 0.120649,-0.2534961 c 0.04464,-0.049497 0.09511,-0.092454 0.149642,-0.1379733 -0.88043,0.2266262 -1.407222,0.4156876 -1.897156,0.9180837 -0.439021,0.4503356 -0.834468,1.1216408 -0.838534,2.0349516 -0.0053,1.1870477 0.63109,2.1977618 1.618116,2.6290057 1.328997,0.5805307 0.962012,-0.047818 1.214977,1.054024 0.117467,0.5115884 0.300077,1.0082392 0.602363,1.4347986 0.07725,0.1090702 0.148049,0.1514962 0.195778,0.2194662"
             style="fill:#172f3b;fill-opacity:1;fill-rule:evenodd;stroke:none;stroke-width:0.00883878"
             id="path41047" />
          <path
             d="m 66.985041,-8.3684384 c 0.499039,0.063904 0.818914,0.2591528 1.012041,0.5800887 0.478266,0.7946062 -0.612793,1.8057622 -1.432944,1.2095868 -0.322879,-0.2347579 -0.425673,-0.6760782 -0.342061,-1.1650393 -0.456167,0.2432432 -0.471283,1.2149783 -0.251993,1.7595353 0.121977,0.3028165 0.291061,0.4825088 0.477559,0.6369223 0.112607,0.093249 0.202055,0.1575954 0.313514,0.243243 0.08291,0.063728 0.168906,0.2024082 0.323587,0.1951603 l 0.163252,0.025721 c 1.335186,0.1471656 2.477243,-0.698617 2.308865,-2.0497123 -0.197016,-1.5803732 -1.845627,-1.873025 -2.425537,-1.5608395 -0.08786,0.047376 -0.09749,0.067263 -0.146283,0.1253339"
             style="fill:#5fc6cf;fill-opacity:1;fill-rule:evenodd;stroke:none;stroke-width:0.00883878"
             id="path41044" />
          <path
             d="m 68.446886,13.594684 c -0.03774,0.302905 -0.874154,1.494018 -1.075237,1.800193 -0.209743,0.31908 -1.011419,1.439837 -1.074086,1.795598 l 1.618908,0.01547 -0.136824,0.695169 -0.567183,2.308424 c 0.322703,-0.21054 2.587464,-3.531268 2.630508,-3.887913 l -1.528578,-0.0039 0.403843,-2.759201 -0.271351,0.03615"
             style="fill:#17303b;fill-opacity:1;fill-rule:evenodd;stroke:none;stroke-width:0.00883878"
             id="path41041" />
          <path
             d="m 61.798094,6.6915109 c 0.93479,0.3777692 0.784884,0.03288 1.105731,-0.6650295 0.201082,-0.437431 0.708517,-0.8536491 1.368065,-0.6226919 0.761638,0.2664891 0.474202,0.8322592 0.832879,1.2451184 0.38095,0.4386685 1.050665,0.1332888 0.869028,-0.6824418 -0.608108,-2.7304749 -4.660864,-1.7864935 -4.175703,0.7250448"
             style="fill:#17303b;fill-opacity:1;fill-rule:evenodd;stroke:none;stroke-width:0.00883878"
             id="path41038" />
          <path
             d="M 71.643608,5.3540271 C 72.65273,5.0857704 72.837373,6.5971127 73.226101,6.84451 73.478979,7.0054643 73.770747,6.7711483 73.858958,6.5881856 74.106266,6.0746527 73.580183,5.2902997 73.354795,5.04467 72.071847,3.6465524 69.880714,4.2769339 69.697043,6.1380268 c -0.106684,1.0799217 0.819973,0.7738348 0.968553,0.3382598 0.11305,-0.3316308 0.07204,-0.5191013 0.293094,-0.7474953 0.141597,-0.1463701 0.414804,-0.3029932 0.684918,-0.3747642"
             style="fill:#162e38;fill-opacity:1;fill-rule:evenodd;stroke:none;stroke-width:0.00883878"
             id="path41035" />
          <path
             d="m 74.166282,13.638789 c 0.06134,0.05595 0.01661,-0.05736 0.08397,0.125953 0.01,0.02722 0.01944,0.08768 0.02458,0.124892 0.03624,0.254999 0.01979,0.619244 0.0066,0.873182 -0.02262,0.432305 -0.0723,0.725576 0.09237,1.103875 0.239885,0.551451 0.607048,1.178916 0.93037,1.526899 l 0.142303,-0.02192 c 0.07522,-2.75e-4 0.881316,-0.268875 0.975183,-0.318549 0.125953,-1.371425 -1.562164,-4.056998 -2.292514,-4.25755 l 0.03712,0.843219"
             style="fill:#d9eef1;fill-opacity:1;fill-rule:evenodd;stroke:none;stroke-width:0.00883878"
             id="path41032" />
          <path
             d="m 56.492443,6.8914439 0.01581,-4.0470105 c -0.783556,-0.1281622 -1.766606,0.9034113 -1.756795,2.0316812 0.0047,0.5530423 0.227423,1.0672823 0.506729,1.3737225 0.184641,0.2025849 0.746963,0.7409548 1.234247,0.6416068"
             style="fill:#5fc6cf;fill-opacity:1;fill-rule:evenodd;stroke:none;stroke-width:0.00883878"
             id="path41029" />
          <path
             d="m 79.265019,6.8924163 c 0.932492,0.039156 1.735493,-1.0570294 1.744245,-2.0160366 0.0091,-0.9996656 -0.79558,-2.0567832 -1.734521,-2.075875 l -0.0097,4.0919116"
             style="fill:#5fc6cf;fill-opacity:1;fill-rule:evenodd;stroke:none;stroke-width:0.00883878"
             id="path41026" />
          <path
             d="m 60.71826,17.424526 c 0.3509,0.0868 0.44132,-0.377151 0.57399,-0.647706 0.07699,-0.157242 0.139566,-0.275681 0.224153,-0.407556 0.114726,-0.179162 0.164046,-0.150524 0.22415,-0.350899 0.03933,-0.248989 -0.04181,-1.133485 -0.03862,-1.489599 0.0041,-0.458379 0.05648,-1.034314 0.01115,-1.477844 -0.626227,0.35638 -2.086836,2.699274 -1.9638,4.039321 0.158479,0.07301 0.33605,0.09183 0.500805,0.167053 0.141157,0.06452 0.30706,0.171561 0.468189,0.16723"
             style="fill:#d9eef1;fill-opacity:1;fill-rule:evenodd;stroke:none;stroke-width:0.00883878"
             id="path41023" />
          <path
             d="m 66.222077,-7.7438022 c -0.08361,0.4889611 0.01919,0.9302814 0.342061,1.1650393 0.820151,0.5961754 1.91121,-0.4149806 1.432944,-1.2095868 -0.193127,-0.3209359 -0.513002,-0.5161844 -1.012041,-0.5800887 -0.396682,0.07018 -0.645938,0.3115667 -0.762964,0.6246362"
             style="fill:#d7f2f1;fill-opacity:1;fill-rule:evenodd;stroke:none;stroke-width:0.00883878"
             id="path41020" />
          <path
             d="m 75.44649,17.37167 -0.142304,0.02192 c -0.323322,-0.347982 -0.690485,-0.975447 -0.93037,-1.526899 -0.164665,-0.378299 -0.114991,-0.67157 -0.09236,-1.103874 0.01318,-0.253938 0.02961,-0.618184 -0.0066,-0.873183 -0.0051,-0.03721 -0.01458,-0.09767 -0.02458,-0.124892 -0.06735,-0.183316 -0.02263,-0.07 -0.08397,-0.125953 -0.01486,0.932756 0.01584,1.664784 -0.0929,2.593828 -0.09316,0.795048 0.471108,1.405631 0.964134,1.621739 0.13815,-0.144514 0.262689,-0.337818 0.408969,-0.482686"
             style="fill:#9acfcc;fill-opacity:1;fill-rule:evenodd;stroke:none;stroke-width:0.00883878"
             id="path41017" />
          <path
             d="m 60.71826,17.424526 c 0.09228,0.142658 0.328979,0.41003 0.446978,0.504429 0.19896,-0.138769 0.559671,-0.427355 0.658753,-0.695966 0.08698,-0.23573 0.03589,-0.824392 -0.03916,-1.104758 -0.03005,-0.112429 0.0032,-0.04137 -0.04428,-0.109866 -0.0601,0.200375 -0.109424,0.171737 -0.22415,0.350899 -0.08459,0.131875 -0.147167,0.250314 -0.224153,0.407556 -0.13267,0.270555 -0.22309,0.734502 -0.57399,0.647706"
             style="fill:#9acfcc;fill-opacity:1;fill-rule:evenodd;stroke:none;stroke-width:0.00883878"
             id="path41014" />
        </g>
        <g
           id="g37910-1-5"
           transform="translate(112.11036,-6.4024332)"
           inkscape:export-filename="P:\Work\teblo\profile.png"
           inkscape:export-xdpi="191.40918"
           inkscape:export-ydpi="191.40918">
          <path
             d="m 130.4278,40.326788 c 0.0101,-0.291967 0.0587,-0.470621 0.29173,-0.552175 0.26206,-0.09172 0.47123,0.04627 0.52302,0.262404 0.12435,0.0652 0.0862,0.39086 0.0588,0.537609 -0.0326,0.175101 -0.13834,0.292777 -0.28162,0.349564 -0.40063,0.158714 -0.63645,-0.219286 -0.59197,-0.597401 z m -3.50344,0.131462 c -0.004,-0.320665 -0.004,-0.540384 0.23767,-0.660545 0.11741,-0.05832 0.25336,-0.07124 0.37542,-0.01385 0.10985,0.05158 0.15701,0.131347 0.20308,0.256479 0.12158,0.102563 0.14533,0.657685 -0.16427,0.85099 -0.13981,0.08733 -0.35387,0.07485 -0.47495,-0.01601 -0.11661,-0.08745 -0.17594,-0.216684 -0.17695,-0.41707 z m 1.26711,-0.335172 c -0.0123,-0.176833 0.17441,-0.286938 0.32728,-0.327917 0.19504,-0.05222 0.40638,-0.04546 0.61431,-0.04896 0.20588,-0.0035 0.43085,-0.02043 0.60862,0.0547 0.11732,0.04962 0.30867,0.202785 0.29829,0.363724 l 0.0413,0.07404 c 0.0665,0.211512 -0.0406,0.446086 -0.20221,0.576738 -0.19296,0.156025 -0.50582,0.141952 -0.79452,0.139698 -0.27596,-0.0021 -0.58709,-0.02399 -0.76965,-0.16458 -0.0803,-0.06188 -0.15649,-0.148715 -0.18449,-0.289598 -0.021,-0.105799 -0.0191,-0.197004 0.0276,-0.289684 0.0176,-0.03488 0.018,-0.06788 0.0334,-0.08817 z m -1.98297,-5.551856 c 0.26056,-0.150275 2.41169,-0.229343 2.86387,-0.230788 0.99002,-0.0031 1.92759,0.06982 2.87895,0.204866 0.763,0.136865 0.78915,1.096054 0.80606,1.895518 0.009,0.438313 0.01,0.899281 -0.0211,1.334156 -0.03,0.425538 -0.0937,0.777123 -0.30882,1.049641 -0.34335,0.435047 -1.57659,0.412476 -2.26866,0.451085 -0.43046,0.02399 -2.31072,0.101495 -2.58202,-0.05334 -0.33624,-0.02298 -0.978,-0.03644 -1.26078,-0.1336 -0.28058,-0.0208 -0.3769,-0.08482 -0.51373,-0.240094 -0.10685,-0.121203 -0.19138,-0.334477 -0.22432,-0.541134 -0.11768,-0.737331 -0.18345,-2.162459 -0.0367,-2.873317 0.0428,-0.207294 0.10655,-0.401813 0.20952,-0.555298 0.0828,-0.123427 0.24316,-0.296791 0.45773,-0.307687 z m 7.37669,2.487718 c -0.0504,0.266305 -0.17282,0.474811 -0.43887,0.51946 l -4e-4,-1.022824 -0.003,-0.549053 c 0.20163,0.03988 0.33777,0.202323 0.40673,0.374157 0.083,0.206974 0.0799,0.450766 0.035,0.67826 z m -8.92909,-0.61159 c 0.05,-0.206801 0.19502,-0.420395 0.40849,-0.445248 l -0.003,0.237665 0.0126,1.336379 c -0.25662,-0.01555 -0.41738,-0.268183 -0.44247,-0.534776 -0.0452,-0.170071 -0.0915,-0.370832 -0.0123,-0.538564 z m 0.49692,1.740793 c 0.0211,0.105943 0.0467,0.195126 0.0626,0.31237 0.0148,0.109557 0.0273,0.212784 0.0633,0.313208 0.0685,0.19082 0.20515,0.324594 0.3274,0.425192 0.28258,0.232319 0.71655,0.290782 1.14946,0.344245 -0.0886,0.18085 -0.19489,0.214807 -0.22165,0.486197 -0.0341,0.196081 -0.031,0.546136 0.0535,0.749123 0.0299,0.0719 0.073,0.131345 0.0925,0.197669 -0.0629,0.07404 -0.24024,0.09594 -0.35151,0.120942 -0.16992,0.03817 -0.24336,0.03844 -0.29965,0.182499 0.37682,0.479752 5.74881,0.493248 6.15697,0 -0.10611,-0.232437 -0.41082,-0.181429 -0.6582,-0.254804 0.0804,-0.32815 0.30546,-0.714182 0.11982,-1.179428 -0.0702,-0.176054 -0.15568,-0.240007 -0.17886,-0.295609 0.68699,-0.130305 1.12666,-0.0941 1.48573,-0.784378 0.0615,-0.118312 0.11294,-0.269483 0.13967,-0.420019 0.0587,-0.330923 -0.0334,-0.303151 0.18293,-0.38641 0.32251,-0.124121 0.44195,-0.151864 0.62818,-0.512553 0.20732,-0.401437 0.21706,-0.966384 0.004,-1.391779 -0.13557,-0.27061 -0.30726,-0.425047 -0.60391,-0.525212 -0.20645,-0.06973 -0.23668,-0.05964 -0.27538,-0.295637 -0.041,-0.25041 -0.0759,-0.430278 -0.21293,-0.635981 -0.019,-0.02861 -0.0394,-0.05864 -0.0615,-0.0843 -0.022,-0.0254 -0.0484,-0.04852 -0.0598,-0.07965 -0.0479,-0.02306 -0.0949,-0.07421 -0.15083,-0.110048 -0.50963,-0.326357 -1.71634,-0.39216 -2.32293,-0.420423 -0.0257,-0.0012 -0.95086,-0.01589 -0.96575,-0.03121 -0.007,-0.01266 -0.0832,-0.418863 -0.1034,-0.489926 -0.11608,-0.408748 -0.34939,-0.899224 -0.85711,-0.938699 -0.38266,-0.0341 -0.69255,0.224978 -0.87394,0.399587 -0.12505,0.0012 -0.17323,-0.05994 -0.33474,-0.006 -0.31081,0.103835 -0.42045,0.471084 -0.18102,0.716755 0.13229,0.135768 0.35265,0.183827 0.54047,0.05519 0.169,-0.115682 0.21177,-0.289251 0.15917,-0.558793 0.14302,-0.204575 0.63075,-0.412244 0.93905,-0.151834 0.24405,0.206079 0.34381,0.555959 0.35441,0.98595 -0.17289,0.02127 -0.41256,0.01399 -0.59326,0.02251 -0.59564,0.02812 -1.15541,0.0741 -1.74715,0.137617 -0.83498,0.08962 -1.21527,0.347743 -1.36803,1.130706 -0.049,0.251132 -0.0218,0.284424 -0.25613,0.364128 -0.08,0.02725 -0.16845,0.04482 -0.23839,0.07713 -0.0712,0.03286 -0.12553,0.08277 -0.17536,0.14013 -0.17824,0.205126 -0.34207,0.508018 -0.36627,0.886161 -0.0318,0.497642 0.20141,1.090419 0.6068,1.276674 0.0771,0.03546 0.1523,0.05289 0.23958,0.07574 0.16544,0.04329 0.0862,0.05887 0.1522,0.152904"
             style="fill:#1f253f;fill-opacity:1;fill-rule:evenodd;stroke:none;stroke-width:0.00288991"
             id="path41011" />
          <path
             d="m 126.18703,36.913665 c -0.0493,-1.069035 0.84429,-1.87818 1.86807,-1.786078 0.39698,0.03572 0.59353,0.251248 0.94993,0.286303 0.60295,0.0593 0.98763,-0.575583 2.01063,-0.152039 0.95214,0.394242 1.28156,1.524369 0.7651,2.442405 -0.14588,0.259369 -0.35505,0.46435 -0.61396,0.612024 -0.27945,0.159349 -0.64497,0.235585 -1.02268,0.196254 -0.38991,-0.04057 -0.60177,-0.259976 -0.95009,-0.286563 -0.34023,-0.02598 -0.65863,0.182208 -0.96766,0.257259 -0.94829,0.23047 -1.99047,-0.509288 -2.03934,-1.569565 z m 0.0215,-2.342443 c 0.078,-0.0092 0.10574,-0.0047 0.1797,0.01445 -0.13133,0.08811 -0.27626,0.112736 -0.39815,0.301533 -0.18801,0.291159 -0.23347,1.550984 -0.23408,1.905085 -6.8e-4,0.452126 0.0355,0.894686 0.087,1.336494 0.0346,0.297661 0.10586,0.701294 0.37873,0.870903 0.0205,0.01277 0.0358,0.01723 0.0569,0.028 0.0569,0.02895 0.0407,0.005 0.0374,0.06107 0.28277,0.09716 0.92454,0.110624 1.26078,0.1336 0.39985,-0.01098 0.79472,-8.2e-5 1.19605,-0.02061 0.94156,-0.04815 2.26955,-0.161749 3.02966,-0.613816 0.31329,-0.186313 0.35777,-0.347223 0.40869,-0.80325 0.088,-0.789118 0.15744,-2.282708 -0.15415,-3.030211 -0.0331,-0.07959 -0.0772,-0.14386 -0.10571,-0.209172 -0.95136,-0.135044 -1.88893,-0.207985 -2.87895,-0.204865 -0.45219,0.0014 -2.60332,0.08051 -2.86388,0.230788"
             style="fill:#69ccbb;fill-opacity:1;fill-rule:evenodd;stroke:none;stroke-width:0.00288991"
             id="path41008" />
          <path
             d="m 130.18409,36.590372 c 0.30162,-0.03497 0.76886,0.09889 0.86107,0.292572 0.0764,0.160391 -0.0517,0.380544 -0.22576,0.27431 -0.28514,-0.174059 -0.48711,-0.28714 -0.85971,-0.09675 -0.1145,0.05849 -0.28295,0.225615 -0.37806,0.03569 -0.0882,-0.176139 0.0373,-0.280667 0.17267,-0.362451 0.12484,-0.0754 0.25758,-0.123428 0.42979,-0.143369 z m -2.41582,-3.29e-4 c 0.17467,-0.01989 0.35826,0.0036 0.51163,0.06003 0.1134,0.04176 0.31049,0.147357 0.34933,0.233215 0.0739,0.163655 -0.0557,0.383347 -0.22611,0.274743 -0.11542,-0.07361 -0.22064,-0.152123 -0.38906,-0.182381 -0.50209,-0.09016 -0.68468,0.404153 -0.84909,0.122012 -0.17076,-0.292893 0.36399,-0.48039 0.6033,-0.507613 z m -1.04759,-0.309854 c -0.0478,0.127242 -0.10586,0.150793 -0.14106,0.387506 -0.0244,0.16432 -0.006,0.339419 0.0373,0.492585 0.15516,0.550671 0.61359,0.93003 1.18755,0.973638 0.39415,0.02997 0.54446,-0.108429 0.84981,-0.218418 0.82469,-0.297142 1.05776,0.27509 1.76567,0.217581 0.51475,-0.04176 1.18154,-0.501515 1.15195,-1.009214 -0.005,-0.563011 -0.19181,-0.931705 -0.64682,-1.213298 -0.53868,-0.333351 -0.89443,-0.147673 -1.42472,0.04725 -0.71586,0.263128 -0.90267,-0.124873 -1.48328,-0.210327 -0.27726,-0.04081 -0.56645,0.0063 -0.77429,0.125537 -0.26992,0.154871 -0.44045,0.373636 -0.52206,0.40716"
             style="fill:#ffffff;fill-opacity:1;fill-rule:evenodd;stroke:none;stroke-width:0.00288991"
             id="path41005" />
          <path
             d="m 131.57185,37.123905 c 0.0296,0.507698 -0.6372,0.967455 -1.15195,1.009214 -0.70791,0.05751 -0.94098,-0.514722 -1.76567,-0.217582 -0.30535,0.109989 -0.45565,0.248387 -0.84981,0.218419 -0.57396,-0.04361 -1.03239,-0.422966 -1.18754,-0.973639 -0.0431,-0.153165 -0.0617,-0.328264 -0.0373,-0.492583 0.0352,-0.236713 0.0933,-0.260266 0.14105,-0.387508 0.16346,-0.515501 0.72459,-0.797239 1.24751,-0.766491 0.64599,0.03795 0.81022,0.504001 1.59454,0.215184 0.62957,-0.2318 0.95523,-0.369244 1.52856,0.02757 0.17755,0.122908 0.33431,0.316301 0.44386,0.551626 0.10071,0.216337 0.17596,0.623699 0.0367,0.815791 z m -5.38482,-0.21024 c 0.0488,1.060277 1.09105,1.800036 2.03934,1.569565 0.30903,-0.07505 0.62743,-0.28324 0.96766,-0.257259 0.34832,0.02659 0.56018,0.245988 0.95009,0.286563 0.37771,0.03933 0.74323,-0.03691 1.02268,-0.196254 0.25891,-0.147674 0.46808,-0.352655 0.61396,-0.612024 0.51646,-0.918036 0.18704,-2.048163 -0.7651,-2.442405 -1.023,-0.423544 -1.40768,0.21134 -2.01063,0.152039 -0.3564,-0.03506 -0.55295,-0.250584 -0.94993,-0.286302 -1.02378,-0.0921 -1.91734,0.717042 -1.86807,1.786078"
             style="fill:#202641;fill-opacity:1;fill-rule:evenodd;stroke:none;stroke-width:0.00288991"
             id="path41002" />
          <path
             d="m 127.57679,39.222354 c 0.2713,0.154841 2.15156,0.07733 2.58201,0.05334 0.69208,-0.03861 1.92531,-0.01604 2.26867,-0.451085 0.21509,-0.27252 0.27878,-0.624105 0.30881,-1.049644 0.0307,-0.434873 0.0303,-0.895842 0.0211,-1.334153 -0.0169,-0.799464 -0.0431,-1.758654 -0.80606,-1.895519 0.0286,0.06531 0.0726,0.129582 0.10572,0.20917 0.31159,0.747505 0.2422,2.241095 0.15415,3.030213 -0.0509,0.456027 -0.0954,0.616937 -0.40869,0.803249 -0.76011,0.452068 -2.0881,0.56567 -3.02966,0.613816 -0.40133,0.02049 -0.7962,0.0096 -1.19605,0.02061"
             style="fill:#40b5b3;fill-opacity:1;fill-rule:evenodd;stroke:none;stroke-width:0.00288991"
             id="path40999" />
          <path
             d="m 126.316,39.088752 c 0.003,-0.05604 0.0195,-0.0321 -0.0374,-0.06106 -0.0212,-0.01078 -0.0365,-0.01523 -0.057,-0.028 -0.27286,-0.16961 -0.34406,-0.573242 -0.37872,-0.870903 -0.0514,-0.441808 -0.0877,-0.884368 -0.087,-1.336494 5.7e-4,-0.354101 0.0461,-1.613926 0.23408,-1.905085 0.12189,-0.188798 0.26682,-0.213418 0.39814,-0.301533 -0.074,-0.01916 -0.10173,-0.02364 -0.1797,-0.01445 -0.21457,0.0109 -0.3749,0.184259 -0.45773,0.307688 -0.10296,0.153484 -0.16672,0.348002 -0.20952,0.555295 -0.14674,0.710859 -0.081,2.135987 0.0367,2.873318 0.0329,0.206657 0.11747,0.419933 0.22432,0.541134 0.13683,0.155276 0.23315,0.219287 0.51373,0.240094"
             style="fill:#f3fbfe;fill-opacity:1;fill-rule:evenodd;stroke:none;stroke-width:0.00288991"
             id="path40996" />
          <path
             d="m 126.72068,36.280227 c 0.0816,-0.03352 0.25214,-0.252289 0.52206,-0.40716 0.20784,-0.119208 0.49703,-0.166342 0.77429,-0.125536 0.58061,0.08545 0.76742,0.473453 1.48328,0.210327 0.53029,-0.194924 0.88604,-0.380601 1.42472,-0.04725 0.45502,0.281592 0.642,0.650287 0.64682,1.213298 0.13926,-0.192091 0.064,-0.599453 -0.0367,-0.815791 -0.10955,-0.235325 -0.26631,-0.428718 -0.44386,-0.551626 -0.57333,-0.396812 -0.89899,-0.259368 -1.52856,-0.02757 -0.78432,0.288817 -0.94855,-0.177238 -1.59453,-0.215184 -0.52293,-0.03075 -1.08406,0.25099 -1.24752,0.766491"
             style="fill:#a8a9b0;fill-opacity:1;fill-rule:evenodd;stroke:none;stroke-width:0.00288991"
             id="path40993" />
          <path
             d="m 130.4278,40.326788 c -0.005,0.117618 6.8e-4,0.09962 0.0651,0.166922 0.12245,0.128455 0.23305,0.272373 0.50042,0.185791 0.25795,-0.08352 0.34219,-0.335661 0.24923,-0.642484 -0.0518,-0.216136 -0.26096,-0.354129 -0.52302,-0.262404 -0.23299,0.08155 -0.28156,0.260208 -0.29173,0.552175"
             style="fill:#69ccb8;fill-opacity:1;fill-rule:evenodd;stroke:none;stroke-width:0.00288991"
             id="path40990" />
          <path
             d="m 126.92436,40.45825 c 0.0271,0.01208 0.0969,0.0758 0.12088,0.09707 0.14184,0.125595 0.26576,0.193334 0.4869,0.110135 0.2383,-0.08965 0.26162,-0.34364 0.20839,-0.625116 -0.0461,-0.125132 -0.0932,-0.204895 -0.20308,-0.256479 -0.12206,-0.05739 -0.25801,-0.04447 -0.37542,0.01385 -0.24178,0.120162 -0.24146,0.339882 -0.23767,0.660545"
             style="fill:#69ccb8;fill-opacity:1;fill-rule:evenodd;stroke:none;stroke-width:0.00288991"
             id="path40987" />
          <path
             d="m 127.76827,36.590082 c -0.23931,0.02723 -0.77406,0.21472 -0.6033,0.507613 0.16441,0.282141 0.347,-0.212178 0.84909,-0.122012 0.16842,0.03025 0.27364,0.108776 0.38906,0.182382 0.1704,0.108603 0.30003,-0.111089 0.22611,-0.274744 -0.0388,-0.08586 -0.23593,-0.191457 -0.34933,-0.233216 -0.15337,-0.05641 -0.33696,-0.07991 -0.51163,-0.06003"
             style="fill:#202641;fill-opacity:1;fill-rule:evenodd;stroke:none;stroke-width:0.00288991"
             id="path40984" />
          <path
             d="m 130.18409,36.590372 c -0.17221,0.01994 -0.30495,0.06797 -0.42979,0.143368 -0.13539,0.08178 -0.26087,0.186312 -0.17267,0.362451 0.0951,0.189926 0.26356,0.02281 0.37806,-0.03569 0.3726,-0.190388 0.57457,-0.07731 0.85971,0.09675 0.17404,0.106234 0.30212,-0.11392 0.22576,-0.27431 -0.0922,-0.193681 -0.55945,-0.327541 -0.86107,-0.292573"
             style="fill:#202641;fill-opacity:1;fill-rule:evenodd;stroke:none;stroke-width:0.00288991"
             id="path40981" />
          <path
             d="m 133.1459,36.555576 0.0417,0.528073 0.3976,-0.02471 c 0.0448,-0.227494 0.048,-0.471285 -0.035,-0.67826 -0.069,-0.171835 -0.2051,-0.334277 -0.40673,-0.374156 l 0.003,0.549053"
             style="fill:#69ccb8;fill-opacity:1;fill-rule:evenodd;stroke:none;stroke-width:0.00288991"
             id="path40978" />
          <path
             d="m 124.6561,36.44735 -0.0372,0.05546 c -0.0792,0.16773 -0.0329,0.368493 0.0123,0.538564 l 0.42741,0.02641 0.006,-0.823565 c -0.28587,0.08875 -0.25067,0.209489 -0.42063,0.327311 l 0.012,-0.12418"
             style="fill:#69ccb8;fill-opacity:1;fill-rule:evenodd;stroke:none;stroke-width:0.00288991"
             id="path40975" />
          <path
             d="m 130.4278,40.326788 c -0.0445,0.378115 0.19134,0.756115 0.59196,0.597401 0.14328,-0.05679 0.24905,-0.174463 0.28163,-0.349563 0.0273,-0.146749 0.0655,-0.472413 -0.0589,-0.537609 0.093,0.306822 0.009,0.558966 -0.24923,0.642484 -0.26737,0.08658 -0.37797,-0.05734 -0.50041,-0.185792 -0.0642,-0.0673 -0.0708,-0.0493 -0.0651,-0.166921"
             style="fill:#3eafb4;fill-opacity:1;fill-rule:evenodd;stroke:none;stroke-width:0.00288991"
             id="path40972" />
          <path
             d="m 126.92436,40.45825 c 6.8e-4,0.200386 0.0603,0.329622 0.17695,0.41707 0.12108,0.09086 0.33514,0.103344 0.47495,0.01601 0.3096,-0.193306 0.28585,-0.748427 0.16427,-0.850991 0.0532,0.281478 0.0299,0.53547 -0.20839,0.625116 -0.22114,0.0832 -0.34506,0.01546 -0.4869,-0.110134 -0.024,-0.02127 -0.0938,-0.08499 -0.12088,-0.09707"
             style="fill:#3eafb4;fill-opacity:1;fill-rule:evenodd;stroke:none;stroke-width:0.00288991"
             id="path40969" />
          <path
             d="m 124.63122,37.04137 c 0.0251,0.266593 0.18585,0.51923 0.44248,0.534776 l -0.0126,-1.336379 0.003,0.0044 -0.006,0.823565 -0.42741,-0.02642"
             style="fill:#41b1b4;fill-opacity:1;fill-rule:evenodd;stroke:none;stroke-width:0.00288991"
             id="path40966" />
          <path
             d="m 133.58519,37.05894 -0.3976,0.02471 -0.0417,-0.528073 4.1e-4,1.022824 c 0.26605,-0.04465 0.38852,-0.253155 0.43886,-0.51946"
             style="fill:#3eafb4;fill-opacity:1;fill-rule:evenodd;stroke:none;stroke-width:0.00288991"
             id="path40963" />
          <path
             d="m 124.6561,36.44735 -0.012,0.124178 c 0.16996,-0.117821 0.13476,-0.238562 0.42063,-0.327311 l -0.003,-0.0044 0.003,-0.237665 c -0.21348,0.02485 -0.35847,0.238447 -0.40849,0.445248"
             style="fill:#e6f7f9;fill-opacity:1;fill-rule:evenodd;stroke:none;stroke-width:0.00288991"
             id="path40960" />
        </g>
        <g
           aria-label="teblo"
           transform="matrix(1.9969171,0,0,1.7555216,80.182186,-99.64803)"
           id="text1398-2-5-9-7-3-4-4-1"
           style="font-size:20.1741px;line-height:1.25;white-space:pre;inline-size:50.6256;fill:#ffffff;stroke-width:0.504353">
          <path
             d="m 57.710278,86.261057 q -0.44383,0 -0.806964,-0.100871 -0.363134,-0.10087 -0.625397,-0.322785 -0.262263,-0.242089 -0.403482,-0.605223 -0.141219,-0.383308 -0.141219,-0.948183 v -7.242502 h -0.88766 v -0.645571 l 0.968357,-0.141219 0.221915,-1.876191 h 0.948182 v 1.876191 h 2.158629 v 0.78679 H 56.98401 v 7.020587 q 0,0.564875 0.201741,0.948183 0.201741,0.383308 0.887661,0.383308 0.282437,0 0.605223,-0.02017 0.322785,-0.04035 0.464004,-0.04035 v 0.806964 q -0.161393,0 -0.564875,0.06052 -0.403482,0.06052 -0.867486,0.06052 z"
             style="font-family:'Alumni Sans';-inkscape-font-specification:'Alumni Sans'"
             id="path40957" />
          <path
             d="m 62.987026,86.42245 q -1.008705,0 -1.634102,-0.221915 -0.625397,-0.24209 -0.907834,-0.867487 -0.282438,-0.625397 -0.282438,-1.815669 v -4.983003 q 0,-1.392013 0.625397,-1.916539 0.645572,-0.524527 2.118281,-0.524527 1.432361,0 2.057758,0.524527 0.645571,0.524526 0.645571,1.916539 v 2.582285 h -4.196213 v 2.824374 q 0,0.968357 0.302612,1.351665 0.302611,0.363134 1.23062,0.363134 0.847312,0 1.12975,-0.363134 0.282437,-0.363134 0.282437,-1.351665 v -1.291142 h 1.250794 v 0.847312 q 0,1.170098 -0.282437,1.815669 -0.282437,0.625397 -0.867486,0.867487 -0.564875,0.242089 -1.47271,0.242089 z m -1.57358,-5.95136 h 2.945419 v -2.037584 q 0,-0.847312 -0.282437,-1.23062 -0.282438,-0.383308 -1.170098,-0.383308 -0.887661,0 -1.190272,0.383308 -0.302612,0.383308 -0.302612,1.23062 z"
             style="font-family:'Alumni Sans';-inkscape-font-specification:'Alumni Sans'"
             id="path40954" />
          <path
             d="m 70.37075,86.382102 q -0.948183,0 -1.412187,-0.322786 -0.44383,-0.34296 -0.605223,-0.746442 l -0.06052,0.928009 H 67.405157 V 73.531199 h 1.23062 v 3.550642 q 0.24209,-0.504352 0.706094,-0.746442 0.484178,-0.242089 1.210446,-0.242089 0.948183,0 1.452535,0.322786 0.504353,0.322785 0.68592,0.88766 0.201741,0.564875 0.201741,1.311317 v 4.942654 q 0,0.665746 -0.121045,1.190272 -0.10087,0.524527 -0.383308,0.887661 -0.262263,0.363134 -0.766616,0.564875 -0.484178,0.181567 -1.250794,0.181567 z m -0.221915,-0.867487 q 0.585049,0 0.88766,-0.161393 0.302612,-0.161392 0.423656,-0.44383 0.141219,-0.282437 0.161393,-0.625397 0.02017,-0.34296 0.02017,-0.706093 v -4.761088 q 0,-0.363134 -0.02017,-0.68592 -0.02017,-0.342959 -0.161393,-0.605223 -0.141218,-0.282437 -0.44383,-0.44383 -0.302611,-0.161393 -0.867486,-0.161393 -0.847312,0 -1.170098,0.423656 -0.322786,0.403482 -0.322786,1.230621 v 4.57952 q 0,0.403482 0.02017,0.827139 0.02017,0.403482 0.141218,0.766615 0.141219,0.34296 0.44383,0.564875 0.302612,0.201741 0.887661,0.201741 z"
             style="font-family:'Alumni Sans';-inkscape-font-specification:'Alumni Sans'"
             id="path40951" />
          <path
             d="m 74.768698,86.240883 v -12.79038 h 1.23062 v 12.79038 z"
             style="font-family:'Alumni Sans';-inkscape-font-specification:'Alumni Sans'"
             id="path40948" />
          <path
             d="m 80.639358,86.382102 q -1.129749,0 -1.734972,-0.34296 -0.585049,-0.34296 -0.806964,-0.988531 -0.201741,-0.665745 -0.201741,-1.593754 V 78.79664 q 0,-0.78679 0.201741,-1.392013 0.201741,-0.605223 0.806964,-0.948183 0.605223,-0.363134 1.734972,-0.363134 1.149924,0 1.734973,0.363134 0.585049,0.34296 0.78679,0.948183 0.221915,0.605223 0.221915,1.392013 v 4.660217 q 0,0.928009 -0.221915,1.593754 -0.221915,0.645571 -0.827138,0.988531 -0.585049,0.34296 -1.694625,0.34296 z m 0,-0.766616 q 0.706094,0 1.008705,-0.282438 0.302612,-0.282437 0.383308,-0.706093 0.100871,-0.44383 0.100871,-0.907835 v -4.983003 q 0,-0.464004 -0.100871,-0.88766 -0.0807,-0.423656 -0.383308,-0.68592 -0.302611,-0.282437 -1.008705,-0.282437 -0.685919,0 -1.008705,0.282437 -0.322785,0.262264 -0.403482,0.68592 -0.0807,0.423656 -0.0807,0.88766 v 4.983003 q 0,0.464005 0.0807,0.907835 0.0807,0.423656 0.403482,0.706093 0.322786,0.282438 1.008705,0.282438 z"
             style="font-family:'Alumni Sans';-inkscape-font-specification:'Alumni Sans'"
             id="path40945" />
        </g>
        <path
           id="path40942"
           style="fill:#80a9af;fill-opacity:0.95;stroke-width:0.0976539"
           d="m 216.33016,27.154463 h 9.79605 c 0.83457,0 1.50644,0.671872 1.50644,1.50644 v 1.80376 c 0,0.834568 -0.67187,1.50644 -1.50644,1.50644 h -9.79605 c -0.83457,0 -1.50644,-0.671872 -1.50644,-1.50644 v -1.80376 c 0,-0.834568 0.67187,-1.50644 1.50644,-1.50644 z" />
        <path
           id="path40939"
           style="fill:#ffffff;stroke-width:0.422833"
           d="m 214.81238,27.109716 h 2.46493 v 6.581552 h -2.46493 z" />
        <g
           aria-label=".dev"
           transform="matrix(0.19614813,0,0,0.19614813,206.90717,14.017877)"
           id="text1398-3-1-1-3-9-40-6-4"
           style="font-size:20.1741px;line-height:1.25;white-space:pre;inline-size:50.6256;fill:#ffffff;stroke-width:0.504353">
          <path
             d="m 59.328934,86.240883 h -2.354301 v -2.807431 h 2.354301 z"
             id="path40936" />
          <path
             d="m 72.568188,86.240883 h -1.851919 v -1.152524 q -0.797902,0.689544 -1.664758,1.073719 -0.866856,0.384175 -1.881471,0.384175 -1.970127,0 -3.132502,-1.516998 -1.152524,-1.516998 -1.152524,-4.206221 0,-1.398791 0.394025,-2.492211 0.403876,-1.093421 1.08357,-1.86177 0.669843,-0.748649 1.5564,-1.142674 0.896408,-0.394025 1.85192,-0.394025 0.866856,0 1.536699,0.187162 0.669843,0.177311 1.408641,0.561486 v -4.767707 h 1.851919 z m -1.851919,-2.708925 v -6.314257 q -0.748649,-0.334922 -1.339687,-0.46298 -0.591038,-0.128058 -1.290433,-0.128058 -1.5564,0 -2.423256,1.08357 -0.866856,1.08357 -0.866856,3.073398 0,1.960276 0.669843,2.984742 0.669843,1.014616 2.147439,1.014616 0.78805,0 1.595802,-0.344772 0.807753,-0.354623 1.507148,-0.906259 z"
             id="path40933" />
          <path
             d="m 85.423268,80.931391 h -8.107073 q 0,1.014615 0.30537,1.773114 0.305369,0.748648 0.837304,1.231329 0.512233,0.472831 1.211628,0.709246 0.709246,0.236415 1.5564,0.236415 1.122973,0 2.255796,-0.443278 1.142673,-0.45313 1.625354,-0.886558 h 0.09851 v 2.019381 q -0.935811,0.394025 -1.911023,0.659992 -0.975213,0.265967 -2.048933,0.265967 -2.738476,0 -4.275175,-1.477595 -1.536699,-1.487446 -1.536699,-4.216072 0,-2.699074 1.467744,-4.285026 1.477596,-1.585952 3.881151,-1.585952 2.226243,0 3.428021,1.300284 1.211628,1.300283 1.211628,3.693988 z m -1.802666,-1.418492 q -0.0099,-1.457894 -0.738798,-2.255795 -0.719096,-0.797902 -2.196692,-0.797902 -1.487446,0 -2.374003,0.876707 -0.876706,0.876706 -0.994914,2.17699 z"
             id="path40930" />
          <path
             d="m 97.74641,75.237723 -4.452487,11.00316 h -1.86177 l -4.422935,-11.00316 h 2.009529 l 3.40832,8.757215 3.378768,-8.757215 z"
             id="path40927" />
        </g>
        <path
           id="path40924"
           style="fill:#ffffff;fill-opacity:0;stroke-width:0.180002"
           d="m 239.4657,32.641457 h 2.87089 c 1.633,0 2.94765,0.303229 2.94765,0.679886 0,0.376657 -1.31465,0.679886 -2.94765,0.679886 h -2.87089 c -1.633,0 -2.94765,-0.303229 -2.94765,-0.679886 0,-0.376657 1.31465,-0.679886 2.94765,-0.679886 z" />
      </g>
    </g>
  </g>
</svg>
